<?xml version="1.0" encoding="UTF-8" standalone="no"?>
<svg width="16px" height="16px" viewBox="0 0 16 16" version="1.1" xmlns="http://www.w3.org/2000/svg" xmlns:xlink="http://www.w3.org/1999/xlink">
    <!-- Generator: Sketch 49.3 (51167) - http://www.bohemiancoding.com/sketch -->
    <title>dribbble</title>
    <desc>Created with Sketch.</desc>
    <defs></defs>
    <g id="Page-1" stroke="none" stroke-width="1" fill="none" fill-rule="evenodd">
        <g id="Artboard-Copy-41" transform="translate(-707.000000, -2286.000000)">
            <g id="dribbble" transform="translate(705.000000, 2284.000000)">
                <rect id="Rectangle-3" x="0" y="0" width="20" height="20"></rect>
                <path d="M15.2893356,5.68431044 C15.145282,5.87889447 14.0002233,7.34483529 11.4737577,8.37498604 C11.6327192,8.7 11.785148,9.03059743 11.9270798,9.36342825 C11.9773869,9.4813512 12.0264098,9.59877164 12.0742602,9.71557789 C14.3480179,9.43003908 16.6071468,9.88766052 16.83244,9.93523171 C16.8173646,8.32456728 16.2410385,6.84556114 15.2893356,5.68431044 M8.39865997,3.3652708 C8.58754886,3.61786711 9.82864322,5.30569514 10.9483529,7.36024567 C13.3781686,6.45069793 14.4068118,5.07001675 14.5297041,4.89519821 C13.3230039,3.82601898 11.7362367,3.17560022 10,3.17560022 C9.44868788,3.17560022 8.91250698,3.24159687 8.39865997,3.3652708 M3.31111111,8.60201005 C3.61669458,8.60608599 6.4319933,8.61825796 9.62830821,7.77063093 C8.4961474,5.76063652 7.27498604,4.0707426 7.0948632,3.82400893 C5.18313791,4.72451145 3.75415969,6.48447795 3.31111111,8.60201005 M4.92339475,14.5624791 C5.07822446,14.2979341 6.95354551,11.1969291 10.4777219,10.0593523 C10.5667783,10.0305416 10.6565606,10.0035734 10.746957,9.97816862 C10.5754327,9.59045226 10.3886655,9.20234506 10.1930207,8.82004467 C6.78051368,9.83992183 3.46923506,9.79737577 3.17024009,9.79123395 C3.16811837,9.86046901 3.16677834,9.92998325 3.16677834,9.99972083 C3.16677834,11.752373 3.83204913,13.352708 4.92339475,14.5624791 M12.6691792,16.2814629 C12.56756,15.6828029 12.1707984,13.5962032 11.2114461,11.1065327 C11.1964266,11.1116695 11.181407,11.1165271 11.1663875,11.1217197 C7.31217197,12.4629816 5.92869905,15.1322166 5.80563931,15.3832496 C6.96426577,16.2855388 8.42037968,16.8238414 10,16.8238414 C10.9465662,16.8238414 11.8487437,16.6304858 12.6691792,16.2814629 M16.7467895,11.0829704 C16.5130095,11.0092686 14.63177,10.4489112 12.4904523,10.7911781 C13.3841988,13.2439419 13.747962,15.2415969 13.8179229,15.6567281 C15.3509771,14.6215522 16.4422111,12.9816862 16.7467895,11.0829704 M10,17.9786153 C5.58877722,17.9786153 2,14.394584 2,9.98933557 C2,5.58397543 5.58877722,2 10,2 C14.4111669,2 18,5.58397543 18,9.98933557 C18,14.394584 14.4111669,17.9786153 10,17.9786153" id="Fill-1" fill="#222C34"></path>
            </g>
        </g>
    </g>
</svg>