<?xml version="1.0" encoding="UTF-8" standalone="no"?>
<svg width="15px" height="14px" viewBox="0 0 15 14" version="1.1" xmlns="http://www.w3.org/2000/svg" xmlns:xlink="http://www.w3.org/1999/xlink">
    <!-- Generator: Sketch 49.3 (51167) - http://www.bohemiancoding.com/sketch -->
    <title>linkedin-logo</title>
    <desc>Created with Sketch.</desc>
    <defs></defs>
    <g id="Page-1" stroke="none" stroke-width="1" fill="none" fill-rule="evenodd">
        <g id="Artboard-Copy-41" transform="translate(-590.000000, -2287.000000)">
            <g id="linkedin-logo" transform="translate(587.000000, 2284.000000)">
                <rect id="Rectangle-3" x="0" y="0" width="20" height="20"></rect>
                <path d="M18,11.5833889 L18,17 L14.7850143,17 L14.7850143,11.9461608 C14.7850143,10.6765952 14.3200013,9.81016637 13.1562831,9.81016637 C12.2679317,9.81016637 11.7392733,10.3940759 11.506697,10.9589102 C11.4218829,11.1608362 11.4000516,11.4418908 11.4000516,11.7245464 L11.4000516,17 L8.18398482,17 C8.18398482,17 8.22729862,8.44045528 8.18398482,7.55362261 L11.3997377,7.55362261 L11.3997377,8.8926088 C11.3932163,8.90262334 11.3847418,8.91342135 11.378604,8.92312933 L11.3997377,8.92312933 L11.3997377,8.8926088 C11.826982,8.24987226 12.5899953,7.33170155 14.2978562,7.33170155 C16.4137804,7.33166749 18,8.68182637 18,11.5833889 Z M4.81984204,3 C3.71962978,3 3,3.70486762 3,4.63179255 C3,5.53851806 3.69880986,6.2647773 4.77715598,6.2647773 L4.79863851,6.2647773 C5.92015893,6.2647773 6.61764357,5.53865431 6.61764357,4.63179255 C6.59650979,3.70486762 5.92015893,3 4.81984204,3 Z M3.19100617,17 L6.40585236,17 L6.40585236,7.55362261 L3.19100617,7.55362261 L3.19100617,17 Z" id="LinkedIn" fill="#222C34" fill-rule="nonzero"></path>
            </g>
        </g>
    </g>
</svg>