<?xml version="1.0" encoding="UTF-8" standalone="no"?>
<svg width="16px" height="13px" viewBox="0 0 16 13" version="1.1" xmlns="http://www.w3.org/2000/svg" xmlns:xlink="http://www.w3.org/1999/xlink">
    <!-- Generator: Sketch 49.3 (51167) - http://www.bohemiancoding.com/sketch -->
    <title>medium</title>
    <desc>Created with Sketch.</desc>
    <defs></defs>
    <g id="Page-1" stroke="none" stroke-width="1" fill="none" fill-rule="evenodd">
        <g id="Artboard-Copy-41" transform="translate(-667.000000, -2288.000000)">
            <g id="medium" transform="translate(665.000000, 2284.000000)">
                <rect id="Rectangle-3" x="0" y="0" width="20" height="20"></rect>
                <path d="M3.89729225,6.52215274 C3.91717103,6.33098023 3.84227176,6.14202746 3.69561158,6.01336112 L2.20168067,4.26166426 L2.20168067,4 L6.84033613,4 L10.4257703,11.6536796 L13.5779646,4 L18,4 L18,4.26166426 L16.7226891,5.45369034 C16.6125709,5.53539099 16.5579466,5.66967179 16.5807657,5.80257603 L16.5807657,14.5610604 C16.5579466,14.6939646 16.6125709,14.8282453 16.7226891,14.909946 L17.9701214,16.1019721 L17.9701214,16.3636364 L11.6956116,16.3636364 L11.6956116,16.1019721 L12.9878619,14.8808722 C13.1148459,14.7573085 13.1148459,14.7209663 13.1148459,14.5319866 L13.1148459,7.45251457 L9.52194211,16.3345626 L9.03641457,16.3345626 L4.85340802,7.45251457 L4.85340802,13.4053765 C4.81853164,13.6556516 4.90392915,13.9076238 5.08496732,14.088611 L6.76563958,16.0728983 L6.76563958,16.3345626 L2,16.3345626 L2,16.0728983 L3.68067227,14.088611 C3.86039232,13.9073237 3.94081024,13.65368 3.89729225,13.4053765 L3.89729225,6.52215274 Z" id="Shape" fill="#222C34" fill-rule="nonzero"></path>
            </g>
        </g>
    </g>
</svg>