<?xml version="1.0" encoding="UTF-8" standalone="no"?>
<svg width="14px" height="12px" viewBox="0 0 14 12" version="1.1" xmlns="http://www.w3.org/2000/svg" xmlns:xlink="http://www.w3.org/1999/xlink">
    <!-- Generator: Sketch 49.3 (51167) - http://www.bohemiancoding.com/sketch -->
    <title>Twitter_bird_logo_2012</title>
    <desc>Created with Sketch.</desc>
    <defs></defs>
    <g id="Page-1" stroke="none" stroke-width="1" fill="none" fill-rule="evenodd">
        <g id="Artboard-Copy-41" transform="translate(-629.000000, -2288.000000)">
            <g id="Twitter_bird_logo_2012" transform="translate(626.000000, 2284.000000)">
                <rect id="Rectangle-3" x="0" y="0" width="20" height="20"></rect>
                <path d="M7.40283137,16 C12.6861144,16 15.5753364,11.3837331 15.5753364,7.38066935 C15.5753364,7.24955108 15.5728042,7.11902738 15.5672278,6.9890933 C16.1280657,6.5614861 16.6155221,6.02786649 17,5.42041079 C16.4853427,5.66167872 15.9315046,5.82409632 15.3505126,5.89733288 C15.9435313,5.52229092 16.3988069,4.92902075 16.6135959,4.22177583 C16.0586304,4.56876384 15.4440483,4.82095706 14.7896747,4.95711434 C14.2655276,4.3682886 13.5193096,4 12.6930391,4 C11.1068328,4 9.82054173,5.35666758 9.82054173,7.02895448 C9.82054173,7.26667479 9.84574138,7.49790434 9.89502259,7.71969999 C7.50777355,7.59301129 5.3909369,6.38755855 3.97423156,4.55458823 C3.72755308,5.00227218 3.58531409,5.52230579 3.58531409,6.0771913 C3.58531409,7.12819867 4.09240779,8.05603027 4.8635247,8.59882613 C4.39227615,8.58347028 3.94959096,8.44703653 3.56267011,8.21994422 C3.5622473,8.23265421 3.5622473,8.24504561 3.5622473,8.25862963 C3.5622473,9.7257392 4.55233435,10.9506593 5.86662499,11.2282259 C5.62526455,11.2976225 5.37132308,11.3348329 5.10922601,11.3348329 C4.92442856,11.3348329 4.7443854,11.31565 4.5693878,11.2802015 C4.93506465,12.4838656 5.99544201,13.3597711 7.25260592,13.3842477 C6.26951878,14.1969303 5.03109957,14.6809625 3.68514494,14.6809625 C3.45358436,14.6809625 3.22482845,14.6670713 3,14.6390282 C4.2712107,15.4983848 5.78065302,15.9998083 7.4029864,15.9998083" id="Shape" fill="#222C34" fill-rule="nonzero"></path>
            </g>
        </g>
    </g>
</svg>